<?xml version="1.0" encoding="UTF-8"?>
<svg id="Layer_1" xmlns="http://www.w3.org/2000/svg" version="1.1" viewBox="0 0 254.3 41.8">
  <!-- Generator: Adobe Illustrator 30.1.0, SVG Export Plug-In . SVG Version: 2.1.1 Build 136)  -->
  <defs>
    <style>
      .st0 {
        fill: #ef2601;
      }
    </style>
  </defs>
  <g>
    <path class="st0" d="M189,36.2c-1.4,1.8-3.4,3.2-5.9,4.2-2.5.9-5.4,1.4-8.5,1.4s-6.2-.7-8.7-2.2-4.5-3.6-5.8-6.4c-1.4-2.8-2.1-6-2.1-9.7v-3.1c0-5.9,1.4-10.5,4.2-13.8,2.8-3.3,6.8-5,11.8-5s7.8,1.1,10.4,3.2c2.6,2.2,4.1,5.3,4.6,9.3h-6.7c-.8-4.7-3.5-7.1-8.2-7.1s-5.4,1.1-6.9,3.3c-1.6,2.2-2.4,5.4-2.5,9.6v3c0,4.2.9,7.5,2.7,9.8,1.8,2.3,4.3,3.5,7.4,3.5s5.9-.8,7.4-2.4v-7.7h-8.1v-5.2h14.8v15Z"/>
    <path class="st0" d="M217.4,24.7h-15.7v16.6h-6.8V2.1h24.8v5.5h-18v11.6h15.7v5.4Z"/>
    <path class="st0" d="M238,16.3l8.2-14.1h7.8l-11.8,19.4,12.1,19.7h-7.9l-8.4-14.3-8.4,14.3h-7.9l12.1-19.7-11.8-19.4h7.8l8.2,14.1Z"/>
  </g>
  <g>
    <path class="st0" d="M31.1,36.2c-1.4,1.8-3.4,3.2-5.9,4.2-2.5.9-5.4,1.4-8.5,1.4s-6.2-.7-8.7-2.2-4.5-3.6-5.8-6.4C.8,30.4,0,27.2,0,23.5v-3.1c0-5.9,1.4-10.5,4.2-13.8C7.1,3.3,11,1.6,16.1,1.6s7.8,1.1,10.4,3.2c2.6,2.2,4.1,5.3,4.6,9.3h-6.7c-.8-4.7-3.5-7.1-8.2-7.1s-5.4,1.1-6.9,3.3c-1.6,2.2-2.4,5.4-2.5,9.6v3c0,4.2.9,7.5,2.7,9.8,1.8,2.3,4.3,3.5,7.4,3.5s5.9-.8,7.4-2.4v-7.7h-8.1v-5.2h14.8v15Z"/>
    <path class="st0" d="M44.3,41.2h-6.5V0h6.5v41.2Z"/>
    <path class="st0" d="M49.7,26.5c0-2.8.6-5.4,1.7-7.7,1.1-2.3,2.7-4,4.8-5.3,2-1.2,4.4-1.8,7-1.8,3.9,0,7.1,1.3,9.5,3.8,2.4,2.5,3.8,5.9,4,10v1.5c0,2.9-.5,5.4-1.6,7.7-1.1,2.3-2.7,4-4.7,5.2-2,1.2-4.4,1.9-7.1,1.9-4.1,0-7.4-1.4-9.8-4.1-2.5-2.7-3.7-6.4-3.7-10.9v-.3ZM56.2,27c0,3,.6,5.3,1.9,7,1.2,1.7,3,2.5,5.2,2.5s3.9-.9,5.1-2.6c1.2-1.7,1.8-4.2,1.8-7.5s-.6-5.3-1.9-7c-1.3-1.7-3-2.6-5.1-2.6s-3.8.8-5.1,2.5c-1.3,1.7-1.9,4.2-1.9,7.6Z"/>
    <path class="st0" d="M107.1,27c0,4.5-1,8.1-3,10.8-2,2.7-4.8,4-8.3,4s-6.1-1.2-7.9-3.7l-.3,3.1h-5.9V0h6.5v15c1.9-2.2,4.4-3.3,7.6-3.3s6.3,1.3,8.4,3.9c2,2.6,3,6.3,3,11v.4ZM100.6,26.5c0-3.2-.6-5.5-1.7-7.1-1.1-1.6-2.7-2.4-4.8-2.4s-4.8,1.2-6,3.7v12c1.2,2.5,3.2,3.8,6,3.8s3.6-.8,4.7-2.3c1.1-1.5,1.7-3.8,1.7-6.9v-.8Z"/>
    <path class="st0" d="M129.4,41.2c-.3-.6-.5-1.5-.8-2.7-2.1,2.2-4.6,3.2-7.6,3.2s-5.3-.8-7.1-2.5c-1.8-1.7-2.8-3.7-2.8-6.2s1.2-5.5,3.5-7.1c2.3-1.7,5.6-2.5,9.9-2.5h4v-1.9c0-1.5-.4-2.7-1.3-3.6-.8-.9-2.1-1.4-3.8-1.4s-2.7.4-3.7,1.1c-.9.7-1.4,1.7-1.4,2.8h-6.5c0-1.6.5-3.1,1.6-4.5,1.1-1.4,2.5-2.5,4.3-3.3,1.8-.8,3.8-1.2,6.1-1.2,3.4,0,6.1.9,8.1,2.6,2,1.7,3.1,4.1,3.1,7.2v13.1c0,2.6.4,4.7,1.1,6.3v.5h-6.7ZM122.2,36.6c1.3,0,2.5-.3,3.6-.9,1.1-.6,2-1.5,2.6-2.5v-5.5h-3.5c-2.4,0-4.2.4-5.5,1.3-1.2.8-1.8,2-1.8,3.6s.4,2.3,1.2,3c.8.7,1.9,1.1,3.3,1.1Z"/>
    <path class="st0" d="M148.2,41.2h-6.5V0h6.5v41.2Z"/>
  </g>
</svg>